<svg width="0" height="0" class="hidden">
  <symbol version="1.0" xmlns="http://www.w3.org/2000/svg" preserveAspectRatio="xMidYMid meet" viewBox="0 0 2048.000000 2048.000000" id="telegram">
    <g transform="translate(0.000000,2048.000000) scale(0.100000,-0.100000)" fill="#000000" stroke="none">
      <path d="M5830 1004 c1207 -578 2502 -908 3860 -984 247 -14 859 -14 1095 -1
      1360 79 2591 388 3806 956 90 42 166 79 168 81 2 2 -2032 4 -4520 3 l-4524 0
      115 -55z"></path>
    </g>
  </symbol>

  <svg id="burger" xmlns="http://www.w3.org/2000/svg"  fill="currentColor" class="bi bi-list" viewBox="0 0 16 16">
    <path fill-rule="evenodd" d="M2.5 12a.5.5 0 0 1 .5-.5h10a.5.5 0 0 1 0 1H3a.5.5 0 0 1-.5-.5zm0-4a.5.5 0 0 1 .5-.5h10a.5.5 0 0 1 0 1H3a.5.5 0 0 1-.5-.5zm0-4a.5.5 0 0 1 .5-.5h10a.5.5 0 0 1 0 1H3a.5.5 0 0 1-.5-.5z"/>
  </svg>

  <svg xmlns="http://www.w3.org/2000/svg" fill="currentColor" id="back" viewBox="0 0 16 16">
    <path d="m3.86 8.753 5.482 4.796c.646.566 1.658.106 1.658-.753V3.204a1 1 0 0 0-1.659-.753l-5.48 4.796a1 1 0 0 0 0 1.506z"/>
  </svg>

  <svg xmlns="http://www.w3.org/2000/svg" fill="currentColor" id="check" viewBox="0 0 16 16">
    <path d="M2.5 8a5.5 5.5 0 0 1 8.25-4.764.5.5 0 0 0 .5-.866A6.5 6.5 0 1 0 14.5 8a.5.5 0 0 0-1 0 5.5 5.5 0 1 1-11 0z"/>
    <path d="M15.354 3.354a.5.5 0 0 0-.708-.708L8 9.293 5.354 6.646a.5.5 0 1 0-.708.708l3 3a.5.5 0 0 0 .708 0l7-7z"/>
  </svg>

  <svg xmlns="http://www.w3.org/2000/svg" id="refresh" fill="currentColor" viewBox="0 0 16 16">
    <path fill-rule="evenodd" d="M8 3a5 5 0 1 0 4.546 2.914.5.5 0 0 1 .908-.417A6 6 0 1 1 8 2v1z"/>
    <path d="M8 4.466V.534a.25.25 0 0 1 .41-.192l2.36 1.966c.12.1.12.284 0 .384L8.41 4.658A.25.25 0 0 1 8 4.466z"/>
  </svg>

  <svg xmlns="http://www.w3.org/2000/svg" fill="currentColor" id="logout" viewBox="0 0 16 16">
    <path fill-rule="evenodd" d="M6 12.5a.5.5 0 0 0 .5.5h8a.5.5 0 0 0 .5-.5v-9a.5.5 0 0 0-.5-.5h-8a.5.5 0 0 0-.5.5v2a.5.5 0 0 1-1 0v-2A1.5 1.5 0 0 1 6.5 2h8A1.5 1.5 0 0 1 16 3.5v9a1.5 1.5 0 0 1-1.5 1.5h-8A1.5 1.5 0 0 1 5 12.5v-2a.5.5 0 0 1 1 0v2z"/>
    <path fill-rule="evenodd" d="M.146 8.354a.5.5 0 0 1 0-.708l3-3a.5.5 0 1 1 .708.708L1.707 7.5H10.5a.5.5 0 0 1 0 1H1.707l2.147 2.146a.5.5 0 0 1-.708.708l-3-3z"/>
  </svg>
    
  <svg xmlns="http://www.w3.org/2000/svg"  fill="currentColor" class="bi bi-list" viewBox="0 0 16 16" id="menu">
    <path fill-rule="evenodd" d="M2.5 12a.5.5 0 0 1 .5-.5h10a.5.5 0 0 1 0 1H3a.5.5 0 0 1-.5-.5zm0-4a.5.5 0 0 1 .5-.5h10a.5.5 0 0 1 0 1H3a.5.5 0 0 1-.5-.5zm0-4a.5.5 0 0 1 .5-.5h10a.5.5 0 0 1 0 1H3a.5.5 0 0 1-.5-.5z"/>
  </svg>

  <symbol xmlns="http://www.w3.org/2000/svg" fill="transparent" viewBox="0 0 16 16" id="archive">
    <path d="M6.5 7.5a1 1 0 0 1 1-1h1a1 1 0 0 1 1 1v.938l.4 1.599a1 1 0 0 1-.416 1.074l-.93.62a1 1 0 0 1-1.109 0l-.93-.62a1 1 0 0 1-.415-1.074l.4-1.599V7.5zm2 0h-1v.938a1 1 0 0 1-.03.243l-.4 1.598.93.62.93-.62-.4-1.598a1 1 0 0 1-.03-.243V7.5z"></path>
    <path d="M2 2a2 2 0 0 1 2-2h8a2 2 0 0 1 2 2v12a2 2 0 0 1-2 2H4a2 2 0 0 1-2-2V2zm5.5-1H4a1 1 0 0 0-1 1v12a1 1 0 0 0 1 1h8a1 1 0 0 0 1-1V2a1 1 0 0 0-1-1H9v1H8v1h1v1H8v1h1v1H7.5V5h-1V4h1V3h-1V2h1V1z"></path>
  </symbol>

  <symbol xmlns="http://www.w3.org/2000/svg" fill="transparent" viewBox="0 0 16 16" id="caret-up">
    <path d="m7.247 4.86-4.796 5.481c-.566.647-.106 1.659.753 1.659h9.592a1 1 0 0 0 .753-1.659l-4.796-5.48a1 1 0 0 0-1.506 0z"></path>
  </symbol>

  <symbol xmlns="http://www.w3.org/2000/svg" fill="transparent" viewBox="0 0 16 16" id="eye">
    <path d="M16 8s-3-5.5-8-5.5S0 8 0 8s3 5.5 8 5.5S16 8 16 8zM1.173 8a13.133 13.133 0 0 1 1.66-2.043C4.12 4.668 5.88 3.5 8 3.5c2.12 0 3.879 1.168 5.168 2.457A13.133 13.133 0 0 1 14.828 8c-.058.087-.122.183-.195.288-.335.48-.83 1.12-1.465 1.755C11.879 11.332 10.119 12.5 8 12.5c-2.12 0-3.879-1.168-5.168-2.457A13.134 13.134 0 0 1 1.172 8z"></path>
    <path d="M8 5.5a2.5 2.5 0 1 0 0 5 2.5 2.5 0 0 0 0-5zM4.5 8a3.5 3.5 0 1 1 7 0 3.5 3.5 0 0 1-7 0z"></path>
  </symbol>

  <symbol xmlns="http://www.w3.org/2000/svg" fill="transparent" viewBox="0 0 16 16" id="coin">
    <path d="M5.5 9.511c.076.954.83 1.697 2.182 1.785V12h.6v-.709c1.4-.098 2.218-.846 2.218-1.932 0-.987-.626-1.496-1.745-1.76l-.473-.112V5.57c.6.068.982.396 1.074.85h1.052c-.076-.919-.864-1.638-2.126-1.716V4h-.6v.719c-1.195.117-2.01.836-2.01 1.853 0 .9.606 1.472 1.613 1.707l.397.098v2.034c-.615-.093-1.022-.43-1.114-.9H5.5zm2.177-2.166c-.59-.137-.91-.416-.91-.836 0-.47.345-.822.915-.925v1.76h-.005zm.692 1.193c.717.166 1.048.435 1.048.91 0 .542-.412.914-1.135.982V8.518l.087.02z"></path>
    <path d="M8 15A7 7 0 1 1 8 1a7 7 0 0 1 0 14zm0 1A8 8 0 1 0 8 0a8 8 0 0 0 0 16z"></path>
    <path d="M8 13.5a5.5 5.5 0 1 1 0-11 5.5 5.5 0 0 1 0 11zm0 .5A6 6 0 1 0 8 2a6 6 0 0 0 0 12z"></path>
  </symbol>

  <symbol fill="transparent" xmlns="http://www.w3.org/2000/svg" viewBox="0 0 25 24" id="message">
    <path d="M12.5 21.25H7.5C3.85 21.25 1.75 19.15 1.75 15.5V8.5C1.75 4.85 3.85 2.75 7.5 2.75H17.5C21.15 2.75 23.25 4.85 23.25 8.5V11.5C23.25 11.91 22.91 12.25 22.5 12.25C22.09 12.25 21.75 11.91 21.75 11.5V8.5C21.75 5.64 20.36 4.25 17.5 4.25H7.5C4.64 4.25 3.25 5.64 3.25 8.5V15.5C3.25 18.36 4.64 19.75 7.5 19.75H12.5C12.91 19.75 13.25 20.09 13.25 20.5C13.25 20.91 12.91 21.25 12.5 21.25Z" fill="currentColor"></path>
    <path d="M12.4998 12.87C11.6598 12.87 10.8098 12.61 10.1598 12.08L7.02978 9.57996C6.70978 9.31996 6.64978 8.84997 6.90978 8.52997C7.16978 8.20997 7.63977 8.15997 7.95977 8.40997L11.0898 10.91C11.8498 11.52 13.1398 11.52 13.8998 10.91L17.0298 8.40997C17.3498 8.14997 17.8198 8.19997 18.0798 8.52997C18.3398 8.84997 18.2898 9.32996 17.9598 9.57996L14.8298 12.08C14.1898 12.61 13.3398 12.87 12.4998 12.87Z" fill="currentColor"></path>
    <path d="M16.3201 21.78C15.9401 21.78 15.5801 21.64 15.3201 21.38C15.0101 21.07 14.8701 20.62 14.9401 20.15L15.1301 18.8C15.1801 18.45 15.3901 18.03 15.6401 17.78L19.18 14.24C19.66 13.76 20.1301 13.51 20.6401 13.46C21.2601 13.4 21.88 13.66 22.46 14.24C23.04 14.82 23.3 15.43 23.24 16.06C23.19 16.56 22.93 17.04 22.46 17.52L18.9201 21.06C18.6701 21.31 18.25 21.52 17.9 21.57L16.55 21.76C16.47 21.77 16.4001 21.78 16.3201 21.78ZM20.81 14.95C20.8 14.95 20.79 14.95 20.78 14.95C20.64 14.96 20.45 15.09 20.24 15.3L16.7001 18.84C16.6701 18.87 16.62 18.97 16.62 19.01L16.4401 20.26L17.6901 20.08C17.7301 20.07 17.83 20.02 17.86 19.99L21.4 16.45C21.61 16.23 21.74 16.05 21.7501 15.91C21.7701 15.71 21.57 15.47 21.4 15.3C21.24 15.14 21.01 14.95 20.81 14.95Z" fill="currentColor"></path>
    <path d="M21.4201 18.2499C21.3501 18.2499 21.2801 18.2399 21.2201 18.2199C19.9001 17.8499 18.8501 16.7999 18.4801 15.4799C18.3701 15.0799 18.6001 14.6699 19.0001 14.5499C19.4001 14.4399 19.8101 14.6699 19.9201 15.0699C20.1501 15.8899 20.8001 16.5399 21.6201 16.7699C22.0201 16.8799 22.2501 17.2999 22.1401 17.6999C22.0501 18.0299 21.7501 18.2499 21.4201 18.2499Z" fill="currentColor"></path>
  </symbol>

  <svg xmlns="http://www.w3.org/2000/svg" fill="currentColor" class="bi bi-headset" viewBox="0 0 16 16" id="headphone">
    <path d="M8 1a5 5 0 0 0-5 5v1h1a1 1 0 0 1 1 1v3a1 1 0 0 1-1 1H3a1 1 0 0 1-1-1V6a6 6 0 1 1 12 0v6a2.5 2.5 0 0 1-2.5 2.5H9.366a1 1 0 0 1-.866.5h-1a1 1 0 1 1 0-2h1a1 1 0 0 1 .866.5H11.5A1.5 1.5 0 0 0 13 12h-1a1 1 0 0 1-1-1V8a1 1 0 0 1 1-1h1V6a5 5 0 0 0-5-5z"/>
  </svg>

  <symbol fill="transparent" xmlns="http://www.w3.org/2000/svg" viewBox="0 0 25 24" id="news">
    <path d="M22.5 10V15C22.5 20 20.5 22 15.5 22H9.5C4.5 22 2.5 20 2.5 15V9C2.5 4 4.5 2 9.5 2H14.5" stroke="currentColor" stroke-width="1.6" stroke-linecap="round" stroke-linejoin="round"></path>
    <path d="M22.5 10H18.5C15.5 10 14.5 9 14.5 6V2L22.5 10Z" stroke="currentColor" stroke-width="1.6" stroke-linecap="round" stroke-linejoin="round"></path>
    <path d="M7.5 13H13.5" stroke="currentColor" stroke-width="1.6" stroke-linecap="round" stroke-linejoin="round"></path>
    <path d="M7.5 17H11.5" stroke="currentColor" stroke-width="1.6" stroke-linecap="round" stroke-linejoin="round"></path>
  </symbol>

  <symbol fill="transparent" xmlns="http://www.w3.org/2000/svg" viewBox="0 0 25 24" id="graph">
    <path d="M7.37988 18.15V16.08" stroke="currentColor" stroke-width="1.5" stroke-linecap="round"></path>
    <path d="M12.5 18.15V14.01" stroke="currentColor" stroke-width="1.5" stroke-linecap="round"></path>
    <path d="M17.6201 18.1501V11.9301" stroke="currentColor" stroke-width="1.5" stroke-linecap="round"></path>
    <path d="M17.6199 5.84998L17.1599 6.38998C14.6099 9.36998 11.1899 11.48 7.37988 12.43" stroke="currentColor" stroke-width="1.5" stroke-linecap="round"></path>
    <path d="M14.6899 5.84998H17.6199V8.76998" stroke="currentColor" stroke-width="1.5" stroke-linecap="round" stroke-linejoin="round"></path>
    <path d="M9.5 22H15.5C20.5 22 22.5 20 22.5 15V9C22.5 4 20.5 2 15.5 2H9.5C4.5 2 2.5 4 2.5 9V15C2.5 20 4.5 22 9.5 22Z" stroke="currentColor" stroke-width="1.5" stroke-linecap="round" stroke-linejoin="round"></path>
  </symbol>

   <symbol fill="transparent" xmlns="http://www.w3.org/2000/svg" viewBox="0 0 24 24" id="home">
    <path d="M7.24 2H5.34C3.15 2 2 3.15 2 5.33V7.23C2 9.41 3.15 10.56 5.33 10.56H7.23C9.41 10.56 10.56 9.41 10.56 7.23V5.33C10.57 3.15 9.42 2 7.24 2Z" fill="currentColor"></path>
    <path d="M18.6699 2H16.7699C14.5899 2 13.4399 3.15 13.4399 5.33V7.23C13.4399 9.41 14.5899 10.56 16.7699 10.56H18.6699C20.8499 10.56 21.9999 9.41 21.9999 7.23V5.33C21.9999 3.15 20.8499 2 18.6699 2Z" fill="currentColor"></path>
    <path d="M18.6699 13.4301H16.7699C14.5899 13.4301 13.4399 14.5801 13.4399 16.7601V18.6601C13.4399 20.8401 14.5899 21.9901 16.7699 21.9901H18.6699C20.8499 21.9901 21.9999 20.8401 21.9999 18.6601V16.7601C21.9999 14.5801 20.8499 13.4301 18.6699 13.4301Z" fill="currentColor"></path>
    <path d="M7.24 13.4301H5.34C3.15 13.4301 2 14.5801 2 16.7601V18.6601C2 20.8501 3.15 22.0001 5.33 22.0001H7.23C9.41 22.0001 10.56 20.8501 10.56 18.6701V16.7701C10.57 14.5801 9.42 13.4301 7.24 13.4301Z" fill="currentColor"></path>
  </symbol>

  <symbol xmlns="http://www.w3.org/2000/svg" fill="currentColor" viewBox="0 0 16 16" id="exclamation">
    <path d="M8 15A7 7 0 1 1 8 1a7 7 0 0 1 0 14zm0 1A8 8 0 1 0 8 0a8 8 0 0 0 0 16z"></path>
    <path d="M7.002 11a1 1 0 1 1 2 0 1 1 0 0 1-2 0zM7.1 4.995a.905.905 0 1 1 1.8 0l-.35 3.507a.552.552 0 0 1-1.1 0L7.1 4.995z"></path>
  </symbol>

  <symbol xmlns="http://www.w3.org/2000/svg" fill="currentColor" viewBox="0 0 16 16" id="caret-down">
    <path d="M7.247 11.14 2.451 5.658C1.885 5.013 2.345 4 3.204 4h9.592a1 1 0 0 1 .753 1.659l-4.796 5.48a1 1 0 0 1-1.506 0z"></path>
  </symbol>

  <symbol xmlns="http://www.w3.org/2000/svg" fill="currentColor" viewBox="0 0 16 16" id="check">
    <path d="M12.736 3.97a.733.733 0 0 1 1.047 0c.286.289.29.756.01 1.05L7.88 12.01a.733.733 0 0 1-1.065.02L3.217 8.384a.757.757 0 0 1 0-1.06.733.733 0 0 1 1.047 0l3.052 3.093 5.4-6.425a.247.247 0 0 1 .02-.022Z"></path>
  </symbol>

  <symbol xmlns="http://www.w3.org/2000/svg" fill="currentColor" viewBox="0 0 16 16" id="trash">
    <path d="M5.5 5.5A.5.5 0 0 1 6 6v6a.5.5 0 0 1-1 0V6a.5.5 0 0 1 .5-.5zm2.5 0a.5.5 0 0 1 .5.5v6a.5.5 0 0 1-1 0V6a.5.5 0 0 1 .5-.5zm3 .5a.5.5 0 0 0-1 0v6a.5.5 0 0 0 1 0V6z"></path>
    <path fill-rule="evenodd" d="M14.5 3a1 1 0 0 1-1 1H13v9a2 2 0 0 1-2 2H5a2 2 0 0 1-2-2V4h-.5a1 1 0 0 1-1-1V2a1 1 0 0 1 1-1H6a1 1 0 0 1 1-1h2a1 1 0 0 1 1 1h3.5a1 1 0 0 1 1 1v1zM4.118 4 4 4.059V13a1 1 0 0 0 1 1h6a1 1 0 0 0 1-1V4.059L11.882 4H4.118zM2.5 3V2h11v1h-11z"></path>
  </symbol>

  <symbol xmlns="http://www.w3.org/2000/svg" fill="currentColor" viewBox="0 0 16 16" id="key">
    <path d="M0 8a4 4 0 0 1 7.465-2H14a.5.5 0 0 1 .354.146l1.5 1.5a.5.5 0 0 1 0 .708l-1.5 1.5a.5.5 0 0 1-.708 0L13 9.207l-.646.647a.5.5 0 0 1-.708 0L11 9.207l-.646.647a.5.5 0 0 1-.708 0L9 9.207l-.646.647A.5.5 0 0 1 8 10h-.535A4 4 0 0 1 0 8zm4-3a3 3 0 1 0 2.712 4.285A.5.5 0 0 1 7.163 9h.63l.853-.854a.5.5 0 0 1 .708 0l.646.647.646-.647a.5.5 0 0 1 .708 0l.646.647.646-.647a.5.5 0 0 1 .708 0l.646.647.793-.793-1-1h-6.63a.5.5 0 0 1-.451-.285A3 3 0 0 0 4 5z"></path>
    <path d="M4 8a1 1 0 1 1-2 0 1 1 0 0 1 2 0z"></path>
  </symbol>

  <symbol xmlns="http://www.w3.org/2000/svg" fill="currentColor" viewBox="0 0 16 16" id="info">
    <path d="M14 1a1 1 0 0 1 1 1v12a1 1 0 0 1-1 1H2a1 1 0 0 1-1-1V2a1 1 0 0 1 1-1h12zM2 0a2 2 0 0 0-2 2v12a2 2 0 0 0 2 2h12a2 2 0 0 0 2-2V2a2 2 0 0 0-2-2H2z"></path>
    <path d="m8.93 6.588-2.29.287-.082.38.45.083c.294.07.352.176.288.469l-.738 3.468c-.194.897.105 1.319.808 1.319.545 0 1.178-.252 1.465-.598l.088-.416c-.2.176-.492.246-.686.246-.275 0-.375-.193-.304-.533L8.93 6.588zM9 4.5a1 1 0 1 1-2 0 1 1 0 0 1 2 0z"></path>
  </symbol>

  <symbol xmlns="http://www.w3.org/2000/svg" fill="currentColor" viewBox="0 0 16 16" id="plus">
    <path d="M8 4a.5.5 0 0 1 .5.5v3h3a.5.5 0 0 1 0 1h-3v3a.5.5 0 0 1-1 0v-3h-3a.5.5 0 0 1 0-1h3v-3A.5.5 0 0 1 8 4z"></path>
  </symbol>

  <symbol id="arrow-right" xmlns="http://www.w3.org/2000/svg" fill="currentColor" viewBox="0 0 16 16">
    <path d="m12.14 8.753-5.482 4.796c-.646.566-1.658.106-1.658-.753V3.204a1 1 0 0 1 1.659-.753l5.48 4.796a1 1 0 0 1 0 1.506z"></path>
  </symbol>

  <symbol id="arrow-left" xmlns="http://www.w3.org/2000/svg" fill="currentColor" viewBox="0 0 16 16">
    <path d="m3.86 8.753 5.482 4.796c.646.566 1.658.106 1.658-.753V3.204a1 1 0 0 0-1.659-.753l-5.48 4.796a1 1 0 0 0 0 1.506z"></path>
  </symbol>

   <symbol id="arrow-up" fill="currentColor" version="1.1" xml:space="preserve" xmlns="http://www.w3.org/2000/svg" xmlns:xlink="http://www.w3.org/1999/xlink" viewBox="0 0 512 512">
    <polygon points="256.5,64.5 64.5,256.5 176.5,256.5 176.5,448.5 336.5,448.5 336.5,256.5 448.5,256.5 "></polygon>
  </symbol>

  <symbol id="bag" xmlns="http://www.w3.org/2000/svg" fill="currentColor" viewBox="0 0 16 16">
    <path d="M8 1a2.5 2.5 0 0 1 2.5 2.5V4h-5v-.5A2.5 2.5 0 0 1 8 1zm3.5 3v-.5a3.5 3.5 0 1 0-7 0V4H1v10a2 2 0 0 0 2 2h10a2 2 0 0 0 2-2V4h-3.5zM2 5h12v9a1 1 0 0 1-1 1H3a1 1 0 0 1-1-1V5z"></path>
  </symbol>

  <symbol id="clock" xmlns="http://www.w3.org/2000/svg" fill="currentColor" viewBox="0 0 16 16" >
    <path d="M8 3.5a.5.5 0 0 0-1 0V9a.5.5 0 0 0 .252.434l3.5 2a.5.5 0 0 0 .496-.868L8 8.71V3.5z"></path>
    <path d="M8 16A8 8 0 1 0 8 0a8 8 0 0 0 0 16zm7-8A7 7 0 1 1 1 8a7 7 0 0 1 14 0z"></path>
  </symbol>

  <symbol id="pause" xmlns="http://www.w3.org/2000/svg" fill="currentColor" viewBox="0 0 16 16">
    <path d="M5.5 3.5A1.5 1.5 0 0 1 7 5v6a1.5 1.5 0 0 1-3 0V5a1.5 1.5 0 0 1 1.5-1.5zm5 0A1.5 1.5 0 0 1 12 5v6a1.5 1.5 0 0 1-3 0V5a1.5 1.5 0 0 1 1.5-1.5z"></path>
  </symbol>

  <symbol id="user" xmlns="http://www.w3.org/2000/svg" fill="currentColor" viewBox="0 0 16 16">
    <path d="M3 14s-1 0-1-1 1-4 6-4 6 3 6 4-1 1-1 1H3Zm5-6a3 3 0 1 0 0-6 3 3 0 0 0 0 6Z"></path>
  </symbol>

  <symbol id="increase" xmlns="http://www.w3.org/2000/svg" fill="currentColor" viewBox="0 0 16 16">
    <path d="M3.5 3.5a.5.5 0 0 0-1 0v8.793l-1.146-1.147a.5.5 0 0 0-.708.708l2 1.999.007.007a.497.497 0 0 0 .7-.006l2-2a.5.5 0 0 0-.707-.708L3.5 12.293V3.5zm4 .5a.5.5 0 0 1 0-1h1a.5.5 0 0 1 0 1h-1zm0 3a.5.5 0 0 1 0-1h3a.5.5 0 0 1 0 1h-3zm0 3a.5.5 0 0 1 0-1h5a.5.5 0 0 1 0 1h-5zM7 12.5a.5.5 0 0 0 .5.5h7a.5.5 0 0 0 0-1h-7a.5.5 0 0 0-.5.5z"></path>
  </symbol>

  <symbol id="decrease" xmlns="http://www.w3.org/2000/svg" fill="currentColor" viewBox="0 0 16 16">
    <path d="M3.5 12.5a.5.5 0 0 1-1 0V3.707L1.354 4.854a.5.5 0 1 1-.708-.708l2-1.999.007-.007a.498.498 0 0 1 .7.006l2 2a.5.5 0 1 1-.707.708L3.5 3.707V12.5zm3.5-9a.5.5 0 0 1 .5-.5h7a.5.5 0 0 1 0 1h-7a.5.5 0 0 1-.5-.5zM7.5 6a.5.5 0 0 0 0 1h5a.5.5 0 0 0 0-1h-5zm0 3a.5.5 0 0 0 0 1h3a.5.5 0 0 0 0-1h-3zm0 3a.5.5 0 0 0 0 1h1a.5.5 0 0 0 0-1h-1z"></path>
  </symbol>

  <symbol id="plus" xmlns="http://www.w3.org/2000/svg" fill="currentColor" viewBox="0 0 16 16" >
    <path d="M8 4a.5.5 0 0 1 .5.5v3h3a.5.5 0 0 1 0 1h-3v3a.5.5 0 0 1-1 0v-3h-3a.5.5 0 0 1 0-1h3v-3A.5.5 0 0 1 8 4z"></path>
  </symbol>

  <symbol xmlns="http://www.w3.org/2000/svg" fill="currentColor" viewBox="0 0 16 16" id="bitcoin">
    <path d="M5.5 13v1.25c0 .138.112.25.25.25h1a.25.25 0 0 0 .25-.25V13h.5v1.25c0 .138.112.25.25.25h1a.25.25 0 0 0 .25-.25V13h.084c1.992 0 3.416-1.033 3.416-2.82 0-1.502-1.007-2.323-2.186-2.44v-.088c.97-.242 1.683-.974 1.683-2.19C11.997 3.93 10.847 3 9.092 3H9V1.75a.25.25 0 0 0-.25-.25h-1a.25.25 0 0 0-.25.25V3h-.573V1.75a.25.25 0 0 0-.25-.25H5.75a.25.25 0 0 0-.25.25V3l-1.998.011a.25.25 0 0 0-.25.25v.989c0 .137.11.25.248.25l.755-.005a.75.75 0 0 1 .745.75v5.505a.75.75 0 0 1-.75.75l-.748.011a.25.25 0 0 0-.25.25v1c0 .138.112.25.25.25L5.5 13zm1.427-8.513h1.719c.906 0 1.438.498 1.438 1.312 0 .871-.575 1.362-1.877 1.362h-1.28V4.487zm0 4.051h1.84c1.137 0 1.756.58 1.756 1.524 0 .953-.626 1.45-2.158 1.45H6.927V8.539z"></path>
  </symbol>
</svg>
